<?xml version="1.0" encoding="UTF-8"?>
<svg width="288px" height="60px" viewBox="0 0 288 60" version="1.1" xmlns="http://www.w3.org/2000/svg" xmlns:xlink="http://www.w3.org/1999/xlink">
    <title>app_logo</title>
    <defs>
        <linearGradient x1="0%" y1="0%" x2="98.5385708%" y2="98.5385708%" id="linearGradient-1">
            <stop stop-color="#54C5F8" offset="0%"></stop>
            <stop stop-color="#01579B" offset="100%"></stop>
        </linearGradient>
    </defs>
    <g id="Page-1" stroke="none" stroke-width="1" fill="none" fill-rule="evenodd">
        <g id="app_logo">
            <g>
                <rect id="Rectangle" fill="url(#linearGradient-1)" x="0" y="0" width="60" height="60" rx="10"></rect>
                <polyline id="Path" stroke="#FFFFFF" stroke-width="4" stroke-linecap="square" stroke-linejoin="round" points="45.7673757 20 33.3659187 32.5072392 28.0389065 27.2915548 17 38.4071251"></polyline>
                <line x1="15" y1="58" x2="15" y2="2" id="Line-5" stroke="#FFFFFF" stroke-width="4" stroke-linecap="square" stroke-linejoin="round"></line>
                <circle id="Oval" fill="#FFFFFF" cx="45" cy="21" r="5"></circle>
                <circle id="Oval-Copy-2" fill="#FFFFFF" cx="15" cy="39" r="5"></circle>
            </g>
            <g id="FlutterHub" transform="translate(85.759766, 15.332031)" fill="#757575" fill-rule="nonzero">
                <polygon id="F" points="0 0.107421875 21.8925781 0.107421875 21.8925781 3.97460938 4.27539062 3.97460938 4.27539062 13.5566406 19.765625 13.5566406 19.765625 17.3164062 4.27539062 17.3164062 4.27539062 31.6679688 0 31.6679688"></polygon>
                <polygon id="l" points="26.0605469 0.107421875 29.9277344 0.107421875 29.9277344 31.6679688 26.0605469 31.6679688"></polygon>
                <path d="M39.5957031,8.65820312 L39.5957031,23.9335938 C39.5957031,25.1080729 39.781901,26.0677083 40.1542969,26.8125 C40.8417969,28.1875 42.1236979,28.875 44,28.875 C46.6927083,28.875 48.5260417,27.671875 49.5,25.265625 C50.0299479,23.9765625 50.2949219,22.2076823 50.2949219,19.9589844 L50.2949219,8.65820312 L54.1621094,8.65820312 L54.1621094,31.6679688 L50.5097656,31.6679688 L50.5527344,28.2734375 C50.0514323,29.1471354 49.4283854,29.8847656 48.6835938,30.4863281 C47.2083333,31.6894531 45.4179688,32.2910156 43.3125,32.2910156 C40.0325521,32.2910156 37.7981771,31.1953125 36.609375,29.0039062 C35.9648438,27.8294271 35.6425781,26.2610677 35.6425781,24.2988281 L35.6425781,8.65820312 L39.5957031,8.65820312 Z" id="u"></path>
                <path d="M60.9726562,2.234375 L64.8828125,2.234375 L64.8828125,8.65820312 L68.5566406,8.65820312 L68.5566406,11.8164062 L64.8828125,11.8164062 L64.8828125,26.8339844 C64.8828125,27.6360677 65.1549479,28.1731771 65.6992188,28.4453125 C66,28.6028646 66.5013021,28.6816406 67.203125,28.6816406 C67.3893229,28.6816406 67.5898438,28.6780599 67.8046875,28.6708984 C68.0195312,28.663737 68.2701823,28.6458333 68.5566406,28.6171875 L68.5566406,31.6679688 C68.1126302,31.796875 67.6507161,31.889974 67.1708984,31.9472656 C66.6910807,32.0045573 66.171875,32.0332031 65.6132812,32.0332031 C63.8085938,32.0332031 62.5839844,31.5712891 61.9394531,30.6474609 C61.2949219,29.7236328 60.9726562,28.5240885 60.9726562,27.0488281 L60.9726562,11.8164062 L57.8574219,11.8164062 L57.8574219,8.65820312 L60.9726562,8.65820312 L60.9726562,2.234375 Z" id="t"></path>
                <path d="M73.1972656,2.234375 L77.1074219,2.234375 L77.1074219,8.65820312 L80.78125,8.65820312 L80.78125,11.8164062 L77.1074219,11.8164062 L77.1074219,26.8339844 C77.1074219,27.6360677 77.3795573,28.1731771 77.9238281,28.4453125 C78.2246094,28.6028646 78.7259115,28.6816406 79.4277344,28.6816406 C79.6139323,28.6816406 79.8144531,28.6780599 80.0292969,28.6708984 C80.2441406,28.663737 80.4947917,28.6458333 80.78125,28.6171875 L80.78125,31.6679688 C80.3372396,31.796875 79.8753255,31.889974 79.3955078,31.9472656 C78.9156901,32.0045573 78.3964844,32.0332031 77.8378906,32.0332031 C76.0332031,32.0332031 74.8085938,31.5712891 74.1640625,30.6474609 C73.5195312,29.7236328 73.1972656,28.5240885 73.1972656,27.0488281 L73.1972656,11.8164062 L70.0820312,11.8164062 L70.0820312,8.65820312 L73.1972656,8.65820312 L73.1972656,2.234375 Z" id="t"></path>
                <path d="M94.2304688,8.14257812 C95.8632812,8.14257812 97.4459635,8.52571615 98.9785156,9.29199219 C100.511068,10.0582682 101.678385,11.0501302 102.480469,12.2675781 C103.253906,13.4277344 103.769531,14.78125 104.027344,16.328125 C104.25651,17.3880208 104.371094,19.078125 104.371094,21.3984375 L87.5058594,21.3984375 C87.577474,23.7330729 88.1289062,25.6057943 89.1601562,27.0166016 C90.1914062,28.4274089 91.7884115,29.1328125 93.9511719,29.1328125 C95.9707031,29.1328125 97.5820312,28.4667969 98.7851562,27.1347656 C99.4726562,26.3613281 99.9596354,25.4661458 100.246094,24.4492188 L104.048828,24.4492188 C103.948568,25.2942708 103.61556,26.2360026 103.049805,27.2744141 C102.484049,28.3128255 101.85026,29.1614583 101.148438,29.8203125 C99.9739583,30.9661458 98.5201823,31.7395833 96.7871094,32.140625 C95.8561198,32.3697917 94.8033854,32.484375 93.6289062,32.484375 C90.7643229,32.484375 88.3365885,31.4423828 86.3457031,29.3583984 C84.3548177,27.2744141 83.359375,24.3561198 83.359375,20.6035156 C83.359375,16.9082031 84.3619792,13.9075521 86.3671875,11.6015625 C88.3723958,9.29557292 90.9934896,8.14257812 94.2304688,8.14257812 Z M100.396484,18.3261719 C100.238932,16.6503906 99.8736979,15.3111979 99.3007812,14.3085938 C98.2408854,12.4466146 96.4720052,11.515625 93.9941406,11.515625 C92.218099,11.515625 90.7285156,12.1565755 89.5253906,13.4384766 C88.3222656,14.7203776 87.6848958,16.3496094 87.6132812,18.3261719 L100.396484,18.3261719 Z" id="e"></path>
                <path d="M109.226562,8.65820312 L112.900391,8.65820312 L112.900391,12.6328125 C113.201172,11.859375 113.938802,10.9176432 115.113281,9.80761719 C116.28776,8.69759115 117.641276,8.14257812 119.173828,8.14257812 C119.245443,8.14257812 119.367188,8.14973958 119.539062,8.1640625 C119.710938,8.17838542 120.004557,8.20703125 120.419922,8.25 L120.419922,12.3320312 C120.190755,12.2890625 119.979492,12.2604167 119.786133,12.2460938 C119.592773,12.2317708 119.38151,12.2246094 119.152344,12.2246094 C117.204427,12.2246094 115.707682,12.851237 114.662109,14.1044922 C113.616536,15.3577474 113.09375,16.8007812 113.09375,18.4335938 L113.09375,31.6679688 L109.226562,31.6679688 L109.226562,8.65820312 Z" id="r"></path>
                <polygon id="H" points="124.394531 0.107421875 128.712891 0.107421875 128.712891 13.1484375 145.126953 13.1484375 145.126953 0.107421875 149.445312 0.107421875 149.445312 31.6679688 145.126953 31.6679688 145.126953 16.9082031 128.712891 16.9082031 128.712891 31.6679688 124.394531 31.6679688"></polygon>
                <path d="M159.414062,8.65820312 L159.414062,23.9335938 C159.414062,25.1080729 159.60026,26.0677083 159.972656,26.8125 C160.660156,28.1875 161.942057,28.875 163.818359,28.875 C166.511068,28.875 168.344401,27.671875 169.318359,25.265625 C169.848307,23.9765625 170.113281,22.2076823 170.113281,19.9589844 L170.113281,8.65820312 L173.980469,8.65820312 L173.980469,31.6679688 L170.328125,31.6679688 L170.371094,28.2734375 C169.869792,29.1471354 169.246745,29.8847656 168.501953,30.4863281 C167.026693,31.6894531 165.236328,32.2910156 163.130859,32.2910156 C159.850911,32.2910156 157.616536,31.1953125 156.427734,29.0039062 C155.783203,27.8294271 155.460938,26.2610677 155.460938,24.2988281 L155.460938,8.65820312 L159.414062,8.65820312 Z" id="u"></path>
                <path d="M179.716797,0 L183.476562,0 L183.476562,11.4511719 C184.321615,10.3483073 185.33138,9.50683594 186.505859,8.92675781 C187.680339,8.34667969 188.955078,8.05664062 190.330078,8.05664062 C193.194661,8.05664062 195.518555,9.04134115 197.301758,11.0107422 C199.084961,12.9801432 199.976562,15.8841146 199.976562,19.7226562 C199.976562,23.3606771 199.095703,26.3828125 197.333984,28.7890625 C195.572266,31.1953125 193.130208,32.3984375 190.007812,32.3984375 C188.260417,32.3984375 186.785156,31.9759115 185.582031,31.1308594 C184.865885,30.6295573 184.099609,29.827474 183.283203,28.7246094 L183.283203,31.6679688 L179.716797,31.6679688 L179.716797,0 Z M189.771484,28.9824219 C191.86263,28.9824219 193.427409,28.1516927 194.46582,26.4902344 C195.504232,24.828776 196.023438,22.6373698 196.023438,19.9160156 C196.023438,17.4954427 195.504232,15.4902344 194.46582,13.9003906 C193.427409,12.3105469 191.898438,11.515625 189.878906,11.515625 C188.117188,11.515625 186.573893,12.1673177 185.249023,13.4707031 C183.924154,14.7740885 183.261719,16.922526 183.261719,19.9160156 C183.261719,22.078776 183.533854,23.8333333 184.078125,25.1796875 C185.095052,27.7148438 186.992839,28.9824219 189.771484,28.9824219 Z" id="b"></path>
            </g>
        </g>
    </g>
</svg>